<svg xmlns="http://www.w3.org/2000/svg" width="136" height="96">
    <style>
        line, path, circle, rect, polygon{stroke:black;stroke-width:2;stroke-opacity:1;fill-opacity:1;stroke-linecap:round;stroke-linejoin:miter;}text{font-family:monospace;font-size:14px;}rect.backdrop{stroke:none;fill:white;}.broken{stroke-dasharray:8;}.filled{fill:black;}.bg_filled{fill:white;}.nofill{fill:white;}.end_marked_arrow{marker-end:url(#arrow);}.start_marked_arrow{marker-start:url(#arrow);}.end_marked_diamond{marker-end:url(#diamond);}.start_marked_diamond{marker-start:url(#diamond);}.end_marked_circle{marker-end:url(#circle);}.start_marked_circle{marker-start:url(#circle);}.end_marked_open_circle{marker-end:url(#open_circle);}.start_marked_open_circle{marker-start:url(#open_circle);}.end_marked_big_open_circle{marker-end:url(#big_open_circle);}.start_marked_big_open_circle{marker-start:url(#big_open_circle);}
        <!--separator-->
        
    </style>
    <defs>
        <marker id="arrow" viewBox="-2 -2 8 8" refX="4" refY="2" markerWidth="7" markerHeight="7" orient="auto-start-reverse">
            <polygon points="0,0 0,4 4,2 0,0"></polygon>
        </marker>
        <marker id="diamond" viewBox="-2 -2 8 8" refX="4" refY="2" markerWidth="7" markerHeight="7" orient="auto-start-reverse">
            <polygon points="0,2 2,0 4,2 2,4 0,2"></polygon>
        </marker>
        <marker id="circle" viewBox="0 0 8 8" refX="4" refY="4" markerWidth="7" markerHeight="7" orient="auto-start-reverse">
            <circle cx="4" cy="4" r="2" class="filled"></circle>
        </marker>
        <marker id="open_circle" viewBox="0 0 8 8" refX="4" refY="4" markerWidth="7" markerHeight="7" orient="auto-start-reverse">
            <circle cx="4" cy="4" r="2" class="bg_filled"></circle>
        </marker>
        <marker id="big_open_circle" viewBox="0 0 8 8" refX="4" refY="4" markerWidth="7" markerHeight="7" orient="auto-start-reverse">
            <circle cx="4" cy="4" r="3" class="bg_filled"></circle>
        </marker>
    </defs>
    <rect class="backdrop" x="0" y="0" width="136" height="96"></rect>
    <text x="2" y="28" >SV</text>
    <rect x="40" y="20" width="8" height="8" class="solid filled" rx="0"></rect>
    <text x="106" y="28" >DOC</text>
    <circle cx="4" cy="40" r="3" class="nofill"></circle>
    <circle cx="100" cy="40" r="3" class="filled"></circle>
    <g>
        <path d="M 40,8 A 4,4 0,0,0 36,12" class="nofill"></path>
        <line x1="36" y1="12" x2="36" y2="68" class="solid"></line>
        <line x1="40" y1="8" x2="56" y2="8" class="solid"></line>
        <path d="M 56,8 A 8,8 0,0,1 62,12" class="nofill"></path>
        <path d="M 64,8 A 3,3 0,0,0 62,12" class="nofill"></path>
        <line x1="62" y1="12" x2="72" y2="32" class="solid"></line>
        <line x1="64" y1="8" x2="88" y2="8" class="solid"></line>
        <path d="M 88,8 A 4,4 0,0,1 92,12" class="nofill"></path>
        <line x1="92" y1="12" x2="92" y2="68" class="solid"></line>
        <line x1="72" y1="32" x2="80" y2="32" class="solid"></line>
        <path d="M 72,32 A 16,16 0,0,0 72,48" class="nofill"></path>
        <line x1="72" y1="48" x2="80" y2="48" class="solid"></line>
        <path d="M 80,32 A 16,16 0,0,1 80,48" class="nofill"></path>
        <line x1="80" y1="48" x2="90" y2="68" class="solid"></line>
        <path d="M 36,68 A 4,4 0,0,0 40,72" class="nofill"></path>
        <line x1="40" y1="72" x2="72" y2="72" class="solid"></line>
        <line x1="44" y1="28" x2="44" y2="48" class="solid"></line>
        <line x1="44" y1="48" x2="64" y2="48" class="solid"></line>
        <line x1="64" y1="48" x2="74" y2="68" class="solid"></line>
        <path d="M 74,68 A 3,3 0,0,1 72,72" class="nofill"></path>
        <path d="M 74,68 A 8,8 0,0,0 80,72" class="nofill"></path>
        <line x1="80" y1="72" x2="88" y2="72" class="solid"></line>
        <path d="M 90,68 A 3,3 0,0,1 88,72" class="nofill"></path>
        <path d="M 92,68 A 4,4 0,0,1 88,72" class="nofill"></path>
    </g>
    <g>
        <line x1="8" y1="40" x2="24" y2="40" class="solid"></line>
        <polygon points="24,36 32,40 24,44" class="filled"></polygon>
    </g>
    <g>
        <line x1="104" y1="40" x2="120" y2="40" class="solid"></line>
        <polygon points="120,36 128,40 120,44" class="filled"></polygon>
    </g>
</svg>